<?xml version="1.0" encoding="UTF-8"?>
<svg width="1400px" height="14200px" viewBox="0 0 1400 14200" version="1.1" xmlns="http://www.w3.org/2000/svg" xmlns:xlink="http://www.w3.org/1999/xlink">
    <title>TernaryClock</title>
    <g id="Page-1" stroke="none" stroke-width="1" fill="none" fill-rule="evenodd" stroke-linecap="round">
        <g id="Clockface-markers" stroke="#000000" stroke-width="60">
            <g id="-12" transform="translate(0, 12800)">
                <g id="Group" transform="translate(400, 100)">
                    <line x1="600" y1="0" x2="600" y2="1200" id="0"></line>
                    <line x1="200" y1="0" x2="600" y2="1200" id="-3"></line>
                    <line x1="0" y1="0" x2="400" y2="1200" id="-9"></line>
                </g>
            </g>
            <g id="-9" transform="translate(0, 11200)">
                <g id="Group" transform="translate(400, 100)">
                    <line x1="600" y1="0" x2="600" y2="1200" id="0"></line>
                    <line x1="400" y1="0" x2="400" y2="1200" id="00"></line>
                    <line x1="0" y1="0" x2="400" y2="1200" id="-9"></line>
                </g>
            </g>
            <g id="-6" transform="translate(0, 9600)">
                <g id="Group" transform="translate(300, 100)">
                    <line x1="800" y1="0" x2="800" y2="1200" id="0"></line>
                    <line x1="800" y1="0" x2="400" y2="1200" id="3"></line>
                    <line x1="0" y1="0" x2="400" y2="1200" id="-9"></line>
                </g>
            </g>
            <g id="-3" transform="translate(0, 8000)">
                <g id="Group" transform="translate(500, 100)">
                    <line x1="400" y1="0" x2="400" y2="1200" id="0"></line>
                    <line x1="0" y1="0" x2="400" y2="1200" id="-3"></line>
                </g>
            </g>
            <g id="0" transform="translate(0, 6400)">
                <line x1="700" y1="100" x2="700" y2="1300"></line>
            </g>
            <g id="3" transform="translate(0, 4800)">
                <g id="Group" transform="translate(500, 100)">
                    <line x1="400" y1="0" x2="400" y2="1200" id="0"></line>
                    <line x1="400" y1="0" x2="0" y2="1200" id="1"></line>
                    <line x1="400" y1="0" x2="0" y2="1200" id="3"></line>
                </g>
            </g>
            <g id="6" transform="translate(0, 3200)">
                <g id="Group" transform="translate(300, 100)">
                    <line x1="800" y1="0" x2="800" y2="1200" id="0"></line>
                    <line x1="400" y1="0" x2="800" y2="1200" id="-3"></line>
                    <line x1="400" y1="0" x2="0" y2="1200" id="9"></line>
                </g>
            </g>
            <g id="9" transform="translate(0, 1600)">
                <g id="Group" transform="translate(400, 100)">
                    <line x1="600" y1="0" x2="600" y2="1200" id="0"></line>
                    <line x1="400" y1="0" x2="400" y2="1200" id="00"></line>
                    <line x1="400" y1="0" x2="0" y2="1200" id="9"></line>
                </g>
            </g>
            <g id="Group" transform="translate(400, 100)">
                <line x1="600" y1="0" x2="600" y2="1200" id="0"></line>
                <line x1="600" y1="0" x2="200" y2="1200" id="3"></line>
                <line x1="400" y1="0" x2="0" y2="1200" id="9"></line>
            </g>
        </g>
    </g>
</svg>